<?xml version="1.0" encoding="UTF-8"?>
<svg id="Layer_1" xmlns="http://www.w3.org/2000/svg" version="1.1" viewBox="0 0 868.82 750.62">
  <!-- Generator: Adobe Illustrator 29.8.2, SVG Export Plug-In . SVG Version: 2.1.1 Build 3)  -->
  <defs>
    <style>
      .st0 {
        fill: #82ba39;
      }
    </style>
  </defs>
  <path class="st0" d="M156.83,399.96c.28-.03.57-.06.85-.09,13.69-.21,27.58-.07,41.25-.07l82.42-.02,55.43.03c17.65-.03,39.71-3.8,50.38,13.82,1.98,3.27,4.1,8.27,4.28,12.08.58,12.4.37,24.93.38,37.35v71.17s-.03,61.75-.03,61.75c0,11.37.13,22.14-.57,33.47-.84,13.66-12.14,24.63-25.39,25.51-4.07.66-19.77.34-24.7.33l-52.33-.02h-86.53c-15.14.02-30.23.24-45.44-.21-11.75-.34-24.45-11.26-25.39-23.29-.62-8.01-.19-17.4-.17-25.54l.03-51.9-.05-84.76c0-13.81-.18-28.24.2-42.04.68-5.89,2.46-11.87,6.08-16.65,5.04-6.65,11.3-9.65,19.29-10.93ZM340.65,611.24c1.44-.87,1.86-.99,2.76-2.44.7-5.08.39-28.51.46-34.65.3-27.48.32-54.95.07-82.43,0-10.16.64-36.84-1.07-45.77-3.41-1.22-34.73-.69-40.27-.69h-74.07c-14.12,0-34.49-.72-47.91-.02-3.39,3.39-2.41,11.21-2.41,16.41l-.06,95.49c-.04,16.01-.24,32.02-.12,48.03.03,3.69,1.35,5.62,5.3,5.75,8.42.26,16.88.16,25.3.16h44.89s57.47.04,57.47.04c9.45.03,20.36.37,29.65.12Z"/>
  <path class="st0" d="M211.28,479.47l99.08-.09c.09,9.25.73,96.57-.24,98.37-13.56-.44-28.29-.19-41.93-.2-18.96-.1-37.92-.05-56.88.12-.47-32.29,0-65.83-.03-98.2Z"/>
  <path class="st0" d="M472.78,88.5c13.8-.55,30.69-.12,44.72-.11l83.91.03,51.2-.05c8.02,0,21.78-.41,29.39.52,5.42.61,10.53,2.86,14.64,6.44,5.17,4.52,9.56,12.53,9.85,19.46.55,13.39.31,27.24.31,40.65l.03,75.55v57.87c0,9.81.79,22.27-.52,31.68-1.91,13.69-15.24,21.88-27.93,22.65l-143.39-.12-43.23-.03c-14.73-.02-28.35,2.45-38.93-9.81-8.33-9.65-6.71-18.14-6.87-29.91-.07-5.42,0-10.82-.01-16.2l-.02-64.9v-71.92c0-12.15-.4-25.05.41-37.12.95-14.12,12.78-23.4,26.46-24.68ZM656.49,297.63c1.75-.77,2.19-.83,3.44-2.32.84-3.16.43-40.3.42-47.06-.02-35.67.03-71.63.03-107.33,0-1.62-.13-4.36-.75-5.84-.27-.65-2.45-1.1-3.04-1.17-8.14-1-18-.6-26.25-.6l-52.48.04h-53.49c-6.91,0-20.92-.42-27.22.11-1.31.51-2.25.75-3.37,1.57-1.34,4.97-.97,17.44-.98,23.14v32.13s0,67.15,0,67.15c0,10.13-.6,27.73.65,38.17.05.46,1.04,1.27,1.47,1.59,5.63.83,16.01.52,22.05.49l35.17-.08,68.74.04c11.46.01,24.32.35,35.61-.02Z"/>
  <path class="st0" d="M527.38,166.73c32.07-.59,66.07-.04,98.27-.09.41,7.69.05,96.61-.32,97.93-.1.37-.42.65-.64.98-32.46.22-64.92.24-97.38.05-.11-32.67-.47-66.28.05-98.87Z"/>
  <path class="st0" d="M162.08,88.52c10.21-.68,28.21-.11,38.95-.11h76.57s57.63-.03,57.63-.03c14,0,34.82-2.48,46.02,6.88,5.85,4.88,9.52,11.89,10.21,19.48.85,9.12.34,26.49.34,36.2v69.27s.03,64.07.03,64.07c0,10.65.42,21.61-.28,32.19-1.1,16.6-13.01,25.62-28.6,26.81-46.34.62-93.83.27-140.2.2h-40.66c-8.28.03-17.09.39-25.3-.37-13.37-1.23-24.66-12.55-25.26-26.06-.61-13.79-.43-27.62-.42-41.4l.06-73.55.03-56.69c0-10.07-.46-20.6.53-30.59,1.74-17.43,14.33-24.91,30.35-26.29ZM341.2,298.55c3.29-.85,4.15-1.97,4.16-5.36.09-50.25.07-100.5,0-150.74,0-2.54-.44-5.25-1.03-7.71-2.9-2.18-32.29-1.42-37.42-1.41l-53.84.03-47.68-.02c-7.63,0-17.3-.31-24.74.05-1.3.7-2.73,1.29-3.28,2.76-.87,2.3-.89,140.08-.42,154.01.07,2.1.24,4.14.88,6.15,1.75,1.94,2.92,2.05,5.51,2.11,8.74.2,17.61.06,26.35.05h49.21s55.42.09,55.42.09c8.27,0,18.88.35,26.88-.01Z"/>
  <path class="st0" d="M212.02,166.9l98.36.05c.86,32.28-.43,66.17.24,98.86-32.52.37-65.71-.04-98.3.03-.96-31.36-.32-67.31-.3-98.93Z"/>
  <path class="st0" d="M468.31,399.97c5.09-.51,16.29-.16,21.85-.16l43.36.03c10.76.03,21.51-.02,32.27-.13,7.1-.07,15.6-.99,22.51.49,3.04.65,5.86,2.86,7.08,5.72,2.78,6.53,1.53,16.26,1.51,23.3-.02,8.31-1.29,55.18,1.08,57.9.67.76,2.13,1.4,3.11,1.56,4.01.65,8.88.15,13,.17,8.67.04,17.43.3,26.09.01,2.22-.07,4.69.14,6.01-1.93,4.22-6.62-1.87-81.07,2.91-86.19,4.36-1.58,48.89-.9,56.28-.9l-.05,88.84v26.1c.03,24.51.68,23.62-23.93,23.56l-27.31-.06-89.41.04c-7.91.17-12.51,1.56-17.66-5.44l-.07-.52c-.82-5.98-.5-15.91-.51-22.31v-39.44c0-5.44.53-16.21-1.2-20.95-2.66-2.77-41.26-2.57-44.72-.57-2.09,5.07-1.4,29.27-1.42,35.76l-.06,52.94c0,38.7-.55,78.57.05,117.12-17.11-.39-35.41-.07-52.61-.08l-.11-155.48v-48.78c.01-9.44-.16-18.68.41-28.12.8-13.07,8.62-20.63,21.52-22.49Z"/>
  <path class="st0" d="M543.96,592.91c7.03-.37,53.01-1.4,57.26.96,1.24.69,1.36,1.24,1.69,2.58,1.52,6.13.23,19.14.25,25.97.03,9.33.98,19.33-.01,28.58-.16,1.52-.66,2.5-1.46,3.79-8.02.22-54.22,1.18-58.48-1.24-2.27-5.82-.52-24.94-.87-32.08-.39-7.93-.17-17.41.03-25.39.04-1.65.62-1.99,1.59-3.17Z"/>
  <path class="st0" d="M646.88,592.85c7.77-.02,53.25-.79,57.3.79,1.5,5.73.69,23.94.83,30.78.17,8.51-.15,18.55-.05,27.15.02,2.13-.03,2.26-1.17,3.34-17.41.16-34.91.38-52.32.39-1.8,0-4.57.05-5.75-1.19-2.24-7.97-.45-43.74-.96-54.19-.14-3-.03-5.06,2.11-7.09Z"/>
</svg>