<svg xmlns="http://www.w3.org/2000/svg" viewBox="0 0 24 24" width="24" height="24">
  <title>airplane</title>
  <path transform="matrix(0.7571724341910677, 0, 0, 0.7571724341910677, -0.26264418811002654, 18.406388642413486)" d="M29.40-8.46C29.39-9.83 27.53-10.83 25.29-10.83L20.57-10.83C19.91-10.83 19.66-10.93 19.28-11.38L11.40-19.97C11.16-20.25 10.85-20.39 10.50-20.39L9.14-20.39C8.84-20.39 8.66-20.12 8.81-19.79L12.87-10.83L6.91-10.15L4.79-14.04C4.64-14.33 4.38-14.46 4.00-14.46L3.49-14.46C3.19-14.46 2.99-14.26 2.99-13.96L2.99-2.96C2.99-2.66 3.19-2.47 3.49-2.47L4.00-2.47C4.38-2.47 4.64-2.60 4.79-2.88L6.91-6.77L12.87-6.09L8.81 2.87C8.66 3.19 8.84 3.47 9.14 3.47L10.50 3.47C10.85 3.47 11.16 3.32 11.40 3.05L19.28-5.55C19.66-5.99 19.91-6.09 20.57-6.09L25.29-6.09C27.53-6.09 29.39-7.10 29.40-8.46Z" fill="currentColor"/>
</svg>