<svg xmlns="http://www.w3.org/2000/svg" viewBox="0 0 24 24" width="24" height="24">
  <title>alarm</title>
  <path transform="matrix(0.8228865316618451, 0, 0, 0.8228865316618451, 1.0549662487945985, 19.782063645130183)" d="M3.68-16.71C3.86-16.71 3.98-16.73 4.15-16.86L8.07-19.83C8.26-19.97 8.37-20.16 8.37-20.36C8.37-20.60 8.25-20.80 8.05-20.99C7.61-21.39 6.81-21.61 6.11-21.61C4.28-21.61 2.81-20.14 2.81-18.32C2.81-17.88 2.88-17.45 3.01-17.18C3.14-16.89 3.39-16.71 3.68-16.71ZM22.92-16.71C23.21-16.71 23.46-16.90 23.60-17.18C23.72-17.44 23.79-17.88 23.79-18.32C23.79-20.14 22.34-21.61 20.50-21.61C19.79-21.61 19.00-21.39 18.55-20.99C18.35-20.80 18.23-20.60 18.23-20.36C18.23-20.16 18.34-19.97 18.54-19.83L22.45-16.86C22.63-16.73 22.75-16.71 22.92-16.71ZM3.50 2.36C3.86 2.72 4.43 2.72 4.79 2.34L6.64 0.50C8.51 1.88 10.80 2.70 13.30 2.70C15.80 2.70 18.09 1.88 19.96 0.50L21.81 2.34C22.17 2.72 22.75 2.72 23.10 2.36C23.45 2.02 23.45 1.44 23.09 1.09L21.30-0.68C23.29-2.70 24.50-5.46 24.50-8.51C24.50-14.70 19.49-19.72 13.30-19.72C7.11-19.72 2.10-14.70 2.10-8.51C2.10-5.46 3.32-2.70 5.30-0.68L3.52 1.09C3.15 1.44 3.16 2.02 3.50 2.36ZM13.30 0.69C8.21 0.69 4.10-3.42 4.10-8.51C4.10-13.58 8.21-17.71 13.30-17.71C18.38-17.71 22.50-13.58 22.50-8.51C22.50-3.42 18.38 0.69 13.30 0.69ZM7.97-7.22L13.29-7.22C13.75-7.22 14.11-7.57 14.11-8.03L14.11-15.13C14.11-15.59 13.75-15.95 13.29-15.95C12.83-15.95 12.48-15.59 12.48-15.13L12.48-8.85L7.97-8.85C7.51-8.85 7.16-8.48 7.16-8.03C7.16-7.57 7.51-7.22 7.97-7.22Z" fill="currentColor"/>
</svg>