<svg width="30" height="15" viewBox="0 0 30 15" fill="none" xmlns="http://www.w3.org/2000/svg">
<rect opacity="0.35" x="0.548881" y="0.548881" width="26.3463" height="13.1732" rx="4.59395" stroke="#A3A3A3" stroke-width="1.09776"/>
<path opacity="0.4" d="M28.542 5.25049V9.72439C29.4254 9.34548 29.9999 8.46402 29.9999 7.48744C29.9999 6.51086 29.4254 5.6294 28.542 5.25049Z" fill="#A3A3A3"/>
<path d="M2.26367 6.5899C2.26367 5.00576 2.26367 4.21369 2.57197 3.60863C2.84315 3.0764 3.27586 2.64369 3.80809 2.3725C4.41315 2.06421 5.20522 2.06421 6.78936 2.06421H20.8441C22.4289 2.06421 23.2213 2.06421 23.8266 2.37263C24.3591 2.64392 24.7919 3.07682 25.0632 3.60926C25.3717 4.21457 25.3717 5.00696 25.3717 6.59175V7.67175C25.3717 9.25654 25.3717 10.0489 25.0632 10.6542C24.7919 11.1867 24.3591 11.6196 23.8266 11.8909C23.2213 12.1993 22.4289 12.1993 20.8441 12.1993H6.78936C5.20522 12.1993 4.41315 12.1993 3.80809 11.891C3.27586 11.6198 2.84315 11.1871 2.57197 10.6549C2.26367 10.0498 2.26367 9.25774 2.26367 7.6736V6.5899Z" fill="#DFDFDF"/>
<path d="M2.26367 6.5899C2.26367 5.00576 2.26367 4.21369 2.57197 3.60863C2.84315 3.0764 3.27586 2.64369 3.80809 2.3725C4.41315 2.06421 5.20522 2.06421 6.78936 2.06421H8.39503C8.62207 2.06421 8.7356 2.06421 8.82232 2.1084C8.8986 2.14726 8.96062 2.20928 8.99949 2.28556C9.04367 2.37228 9.04367 2.48581 9.04367 2.71285V11.5506C9.04367 11.7777 9.04367 11.8912 8.99949 11.9779C8.96062 12.0542 8.8986 12.1162 8.82232 12.1551C8.7356 12.1993 8.62207 12.1993 8.39503 12.1993H6.78936C5.20522 12.1993 4.41315 12.1993 3.80809 11.891C3.27586 11.6198 2.84315 11.1871 2.57197 10.6549C2.26367 10.0498 2.26367 9.25774 2.26367 7.6736V6.5899Z" fill="#FCCC44"/>
<path d="M11.2666 10.3214C10.894 10.3214 10.5629 10.2576 10.2731 10.1299C9.98506 10.0023 9.75738 9.82464 9.59007 9.59696C9.42276 9.36928 9.33394 9.10625 9.32359 8.80785H10.2964C10.305 8.95101 10.3524 9.07606 10.4387 9.183C10.5249 9.28822 10.6396 9.37015 10.7828 9.42879C10.926 9.48744 11.0864 9.51676 11.264 9.51676C11.4538 9.51676 11.6219 9.48399 11.7685 9.41844C11.9151 9.35117 12.0298 9.25803 12.1126 9.13902C12.1954 9.02001 12.236 8.88288 12.2342 8.72765C12.236 8.56724 12.1946 8.4258 12.11 8.30334C12.0255 8.18088 11.9031 8.08515 11.7427 8.01616C11.584 7.94716 11.3925 7.91267 11.1683 7.91267H10.7V7.17272H11.1683C11.3528 7.17272 11.5141 7.14081 11.6521 7.07699C11.7918 7.01317 11.9013 6.92348 11.9807 6.80791C12.06 6.69063 12.0988 6.55523 12.0971 6.40172C12.0988 6.25166 12.0652 6.12143 11.9962 6.01104C11.9289 5.89893 11.8332 5.81183 11.709 5.74973C11.5866 5.68764 11.4425 5.65659 11.277 5.65659C11.1148 5.65659 10.9648 5.68591 10.8268 5.74456C10.6888 5.8032 10.5775 5.88686 10.493 5.99552C10.4085 6.10246 10.3637 6.2301 10.3585 6.37843H9.43484C9.44174 6.08176 9.52712 5.82131 9.69098 5.59708C9.85656 5.37113 10.0773 5.1952 10.3533 5.06929C10.6293 4.94165 10.9389 4.87783 11.2821 4.87783C11.6357 4.87783 11.9427 4.94424 12.2032 5.07705C12.4654 5.20814 12.668 5.38493 12.8112 5.60743C12.9544 5.82994 13.0259 6.07572 13.0259 6.3448C13.0277 6.64319 12.9397 6.89329 12.762 7.0951C12.5861 7.2969 12.355 7.42885 12.0687 7.49095V7.53234C12.4412 7.58409 12.7267 7.72207 12.925 7.9463C13.1251 8.1688 13.2243 8.44564 13.2226 8.77681C13.2226 9.07348 13.138 9.3391 12.969 9.57368C12.8017 9.80653 12.5706 9.98936 12.2756 10.1222C11.9824 10.255 11.6461 10.3214 11.2666 10.3214ZM14.1106 10.2489V9.55557L15.9502 7.75226C16.1261 7.5746 16.2727 7.41678 16.39 7.27879C16.5073 7.14081 16.5952 7.00713 16.6539 6.87777C16.7125 6.74841 16.7419 6.61042 16.7419 6.46381C16.7419 6.2965 16.7039 6.15334 16.628 6.03433C16.5521 5.91359 16.4478 5.82045 16.315 5.75491C16.1822 5.68936 16.0312 5.65659 15.8622 5.65659C15.688 5.65659 15.5353 5.69281 15.4043 5.76526C15.2732 5.83597 15.1714 5.93688 15.099 6.06796C15.0282 6.19905 14.9929 6.35515 14.9929 6.53625H14.0796C14.0796 6.19991 14.1563 5.90755 14.3099 5.65918C14.4634 5.4108 14.6747 5.21848 14.9437 5.08222C15.2145 4.94596 15.525 4.87783 15.8751 4.87783C16.2304 4.87783 16.5426 4.94424 16.8117 5.07705C17.0808 5.20986 17.2895 5.39183 17.4378 5.62296C17.5879 5.85408 17.6629 6.11798 17.6629 6.41465C17.6629 6.61301 17.625 6.80791 17.5491 6.99937C17.4732 7.19083 17.3395 7.40298 17.1481 7.63583C16.9583 7.86868 16.6918 8.15069 16.3486 8.48186L15.4353 9.41068V9.4469H17.7431V10.2489H14.1106Z" fill="black"/>
</svg>
