<svg width="30" height="15" viewBox="0 0 30 15" fill="none" xmlns="http://www.w3.org/2000/svg">
<rect opacity="0.35" x="0.548881" y="0.74926" width="26.3463" height="13.1732" rx="4.59395" stroke="#E3E3E3" stroke-width="1.09776"/>
<path opacity="0.4" d="M28.542 5.45087V9.92477C29.4254 9.54586 29.9999 8.6644 29.9999 7.68782C29.9999 6.71124 29.4254 5.82978 28.542 5.45087Z" fill="#A3A3A3"/>
<path d="M2.26367 6.79034C2.26367 5.2062 2.26367 4.41413 2.57197 3.80907C2.84315 3.27684 3.27586 2.84413 3.80809 2.57294C4.41315 2.26465 5.20522 2.26465 6.78936 2.26465H20.8441C22.4289 2.26465 23.2213 2.26465 23.8266 2.57307C24.3591 2.84436 24.7919 3.27725 25.0632 3.8097C25.3717 4.41501 25.3717 5.2074 25.3717 6.79219V7.87219C25.3717 9.45698 25.3717 10.2494 25.0632 10.8547C24.7919 11.3871 24.3591 11.82 23.8266 12.0913C23.2213 12.3997 22.4289 12.3997 20.8441 12.3997H6.78936C5.20522 12.3997 4.41315 12.3997 3.80809 12.0914C3.27586 11.8203 2.84315 11.3875 2.57197 10.8553C2.26367 10.2503 2.26367 9.45818 2.26367 7.87404V6.79034Z" fill="#DFDFDF"/>
<path d="M2.11322 6.43267C2.11322 5.10331 2.11322 4.43863 2.3322 3.91497C2.61907 3.22897 3.16452 2.68352 3.85052 2.39665C4.37418 2.17767 5.03886 2.17767 6.36821 2.17767C6.55874 2.17767 6.65401 2.17767 6.72906 2.20906C6.82738 2.25017 6.90556 2.32835 6.94667 2.42667C6.97806 2.50173 6.97806 2.59699 6.97806 2.78752V11.7029C6.97806 11.8934 6.97806 11.9887 6.94667 12.0638C6.90556 12.1621 6.82738 12.2403 6.72906 12.2814C6.65401 12.3128 6.55874 12.3128 6.36821 12.3128C5.03886 12.3128 4.37418 12.3128 3.85052 12.0938C3.16452 11.8069 2.61907 11.2615 2.3322 10.5755C2.11322 10.0518 2.11322 9.38712 2.11322 8.05777V6.43267Z" fill="#FF0B0B"/>
<g clip-path="url(#clip0_1_3322)">
<path d="M18.3124 7.04355L15.3911 6.2608L16.4865 2.17261C16.5673 1.87108 16.2062 1.6526 15.9746 1.85915L15.71 2.09464L10.0636 7.11228C9.80893 7.34204 9.90609 7.7626 10.2389 7.85179L13.1954 8.64398L12.1011 12.7283C12.0203 13.0298 12.3814 13.2483 12.617 13.0428L12.8245 12.8634L18.4906 7.78802C18.7413 7.55721 18.6413 7.13169 18.3124 7.04355Z" fill="black"/>
</g>
<defs>
<clipPath id="clip0_1_3322">
<rect width="12.1621" height="12.1621" fill="white" transform="translate(9.97559) rotate(15)"/>
</clipPath>
</defs>
</svg>
