<svg width="30" height="15" viewBox="0 0 30 15" fill="none" xmlns="http://www.w3.org/2000/svg">
<rect opacity="0.35" x="0.548881" y="0.548881" width="26.3463" height="13.1732" rx="4.59395" stroke="#A3A3A3" stroke-width="1.09776"/>
<path opacity="0.4" d="M28.542 5.25037V9.72427C29.4254 9.34536 29.9999 8.4639 29.9999 7.48732C29.9999 6.51074 29.4254 5.62928 28.542 5.25037Z" fill="#A3A3A3"/>
<path d="M2.26367 6.5899C2.26367 5.00576 2.26367 4.21369 2.57197 3.60863C2.84315 3.0764 3.27586 2.64369 3.80809 2.3725C4.41315 2.06421 5.20522 2.06421 6.78936 2.06421H20.8441C22.4289 2.06421 23.2213 2.06421 23.8266 2.37263C24.3591 2.64392 24.7919 3.07682 25.0632 3.60926C25.3717 4.21457 25.3717 5.00696 25.3717 6.59175V7.67175C25.3717 9.25654 25.3717 10.0489 25.0632 10.6542C24.7919 11.1867 24.3591 11.6196 23.8266 11.8909C23.2213 12.1993 22.4289 12.1993 20.8441 12.1993H6.78936C5.20522 12.1993 4.41315 12.1993 3.80809 11.891C3.27586 11.6198 2.84315 11.1871 2.57197 10.6549C2.26367 10.0498 2.26367 9.25774 2.26367 7.6736V6.5899Z" fill="#DFDFDF"/>
<path d="M2.43262 4.86364C2.43262 4.85611 2.43262 4.85235 2.43262 4.84917C2.43613 3.29197 3.69761 2.03049 5.25481 2.02698C5.25799 2.02698 5.26175 2.02698 5.26928 2.02698C5.27036 2.02698 5.2709 2.02698 5.27135 2.02698C5.49454 2.02748 5.67534 2.20828 5.67584 2.43147C5.67584 2.43192 5.67584 2.43246 5.67584 2.43354V11.7555C5.67584 11.7566 5.67584 11.7571 5.67584 11.7576C5.67534 11.9808 5.49454 12.1616 5.27135 12.1621C5.2709 12.1621 5.27036 12.1621 5.26928 12.1621C5.26175 12.1621 5.25799 12.1621 5.25481 12.1621C3.69761 12.1585 2.43613 10.8971 2.43262 9.33987C2.43262 9.33669 2.43262 9.33292 2.43262 9.3254V4.86364Z" fill="#FF0B0B"/>
<path d="M13.5372 10.3213C13.1923 10.3213 12.8835 10.2566 12.611 10.1272C12.3385 9.99615 12.122 9.81677 11.9616 9.58909C11.8029 9.36142 11.7184 9.10097 11.7081 8.80775H12.6395C12.6567 9.02507 12.7507 9.20273 12.9215 9.34072C13.0922 9.47698 13.2975 9.54511 13.5372 9.54511C13.7252 9.54511 13.8926 9.50199 14.0392 9.41575C14.1858 9.32951 14.3013 9.20963 14.3859 9.05612C14.4704 8.90261 14.5118 8.72754 14.51 8.53091C14.5118 8.33083 14.4695 8.15317 14.3833 7.99794C14.297 7.8427 14.1789 7.7211 14.0288 7.63314C13.8788 7.54345 13.7063 7.4986 13.5114 7.4986C13.3527 7.49688 13.1966 7.5262 13.0431 7.58657C12.8896 7.64694 12.768 7.72628 12.6783 7.82459L11.8115 7.6823L12.0884 4.95017H15.162V5.75221H12.8827L12.73 7.15708H12.7611C12.8594 7.04152 12.9982 6.94579 13.1776 6.8699C13.357 6.79228 13.5536 6.75348 13.7675 6.75348C14.0883 6.75348 14.3746 6.82937 14.6265 6.98115C14.8783 7.13121 15.0766 7.33819 15.2215 7.60209C15.3664 7.86599 15.4389 8.16783 15.4389 8.50763C15.4389 8.85777 15.3578 9.16996 15.1957 9.44421C15.0352 9.71673 14.8119 9.93147 14.5256 10.0884C14.241 10.2437 13.9115 10.3213 13.5372 10.3213Z" fill="black"/>
</svg>
