<svg width="30" height="15" viewBox="0 0 30 15" fill="none" xmlns="http://www.w3.org/2000/svg">
<rect opacity="0.35" x="0.548875" y="0.548875" width="26.346" height="13.173" rx="4.17145" stroke="#A3A3A3" stroke-width="1.09775"/>
<path opacity="0.4" d="M28.542 5.2489V9.72276C29.4254 9.34385 29.9998 8.4624 29.9998 7.48583C29.9998 6.50926 29.4254 5.62781 28.542 5.2489Z" fill="#A3A3A3"/>
<rect x="2.19629" y="2.19405" width="23.0527" height="9.87977" rx="2.74438" fill="#34CB58"/>
<path d="M11.0643 10.3264C10.6606 10.3264 10.3022 10.2585 9.989 10.1227C9.67762 9.98696 9.43323 9.8014 9.25581 9.56606C9.08021 9.3289 8.99331 9.06006 8.99512 8.75955C8.99331 8.52601 9.044 8.31148 9.14719 8.11597C9.25038 7.92045 9.38978 7.75752 9.56538 7.62717C9.7428 7.49502 9.94012 7.41084 10.1574 7.37463V7.33661C9.87133 7.27325 9.63961 7.12752 9.46219 6.89941C9.28659 6.6695 9.19969 6.40428 9.2015 6.10377C9.19969 5.81773 9.27935 5.56247 9.44047 5.33799C9.60159 5.11351 9.82245 4.937 10.1031 4.80846C10.3837 4.67812 10.7041 4.61295 11.0643 4.61295C11.421 4.61295 11.7387 4.67812 12.0175 4.80846C12.2981 4.937 12.519 5.11351 12.6801 5.33799C12.843 5.56247 12.9245 5.81773 12.9245 6.10377C12.9245 6.40428 12.8349 6.6695 12.6556 6.89941C12.4782 7.12752 12.2492 7.27325 11.9686 7.33661V7.37463C12.1859 7.41084 12.3814 7.49502 12.5552 7.62717C12.7308 7.75752 12.8702 7.92045 12.9734 8.11597C13.0784 8.31148 13.1309 8.52601 13.1309 8.75955C13.1309 9.06006 13.0422 9.3289 12.8647 9.56606C12.6873 9.8014 12.4429 9.98696 12.1315 10.1227C11.822 10.2585 11.4662 10.3264 11.0643 10.3264ZM11.0643 9.54976C11.2725 9.54976 11.4536 9.51446 11.6075 9.44386C11.7613 9.37144 11.8808 9.27006 11.9659 9.13972C12.051 9.00937 12.0944 8.85911 12.0962 8.68894C12.0944 8.51153 12.0483 8.35493 11.9578 8.21916C11.869 8.08157 11.7468 7.97385 11.5912 7.89601C11.4373 7.81817 11.2617 7.77924 11.0643 7.77924C10.8652 7.77924 10.6878 7.81817 10.5321 7.89601C10.3764 7.97385 10.2533 8.08157 10.1628 8.21916C10.0741 8.35493 10.0306 8.51153 10.0325 8.68894C10.0306 8.85911 10.0723 9.00937 10.1574 9.13972C10.2425 9.26825 10.3619 9.36873 10.5158 9.44114C10.6715 9.51355 10.8543 9.54976 11.0643 9.54976ZM11.0643 7.01618C11.2345 7.01618 11.3848 6.98178 11.5151 6.91299C11.6473 6.8442 11.7514 6.74825 11.8274 6.62515C11.9034 6.50204 11.9424 6.35993 11.9442 6.19881C11.9424 6.0395 11.9043 5.9001 11.8301 5.78062C11.7559 5.65933 11.6527 5.56609 11.5206 5.50092C11.3884 5.43394 11.2363 5.40045 11.0643 5.40045C10.8887 5.40045 10.734 5.43394 10.6 5.50092C10.4678 5.56609 10.3646 5.65933 10.2904 5.78062C10.218 5.9001 10.1827 6.0395 10.1845 6.19881C10.1827 6.35993 10.2189 6.50204 10.2931 6.62515C10.3692 6.74644 10.4733 6.84239 10.6054 6.91299C10.7394 6.98178 10.8924 7.01618 11.0643 7.01618ZM16.0005 10.3264C15.5968 10.3264 15.2383 10.2585 14.9251 10.1227C14.6138 9.98696 14.3694 9.8014 14.1919 9.56606C14.0163 9.3289 13.9294 9.06006 13.9313 8.75955C13.9294 8.52601 13.9801 8.31148 14.0833 8.11597C14.1865 7.92045 14.3259 7.75752 14.5015 7.62717C14.6789 7.49502 14.8763 7.41084 15.0935 7.37463V7.33661C14.8075 7.27325 14.5757 7.12752 14.3983 6.89941C14.2227 6.6695 14.1358 6.40428 14.1376 6.10377C14.1358 5.81773 14.2155 5.56247 14.3766 5.33799C14.5377 5.11351 14.7586 4.937 15.0392 4.80846C15.3198 4.67812 15.6402 4.61295 16.0005 4.61295C16.3571 4.61295 16.6748 4.67812 16.9536 4.80846C17.2342 4.937 17.4551 5.11351 17.6162 5.33799C17.7792 5.56247 17.8606 5.81773 17.8606 6.10377C17.8606 6.40428 17.771 6.6695 17.5918 6.89941C17.4144 7.12752 17.1854 7.27325 16.9048 7.33661V7.37463C17.122 7.41084 17.3175 7.49502 17.4913 7.62717C17.6669 7.75752 17.8063 7.92045 17.9095 8.11597C18.0145 8.31148 18.067 8.52601 18.067 8.75955C18.067 9.06006 17.9783 9.3289 17.8009 9.56606C17.6235 9.8014 17.3791 9.98696 17.0677 10.1227C16.7581 10.2585 16.4024 10.3264 16.0005 10.3264ZM16.0005 9.54976C16.2087 9.54976 16.3897 9.51446 16.5436 9.44386C16.6975 9.37144 16.817 9.27006 16.902 9.13972C16.9871 9.00937 17.0306 8.85911 17.0324 8.68894C17.0306 8.51153 16.9844 8.35493 16.8939 8.21916C16.8052 8.08157 16.683 7.97385 16.5273 7.89601C16.3734 7.81817 16.1978 7.77924 16.0005 7.77924C15.8013 7.77924 15.6239 7.81817 15.4682 7.89601C15.3126 7.97385 15.1895 8.08157 15.0989 8.21916C15.0102 8.35493 14.9668 8.51153 14.9686 8.68894C14.9668 8.85911 15.0084 9.00937 15.0935 9.13972C15.1786 9.26825 15.2981 9.36873 15.452 9.44114C15.6076 9.51355 15.7905 9.54976 16.0005 9.54976ZM16.0005 7.01618C16.1707 7.01618 16.3209 6.98178 16.4513 6.91299C16.5834 6.8442 16.6875 6.74825 16.7635 6.62515C16.8396 6.50204 16.8785 6.35993 16.8803 6.19881C16.8785 6.0395 16.8405 5.9001 16.7663 5.78062C16.692 5.65933 16.5888 5.56609 16.4567 5.50092C16.3245 5.43394 16.1725 5.40045 16.0005 5.40045C15.8249 5.40045 15.6701 5.43394 15.5361 5.50092C15.404 5.56609 15.3008 5.65933 15.2266 5.78062C15.1541 5.9001 15.1188 6.0395 15.1207 6.19881C15.1188 6.35993 15.1551 6.50204 15.2293 6.62515C15.3053 6.74644 15.4094 6.84239 15.5416 6.91299C15.6755 6.98178 15.8285 7.01618 16.0005 7.01618Z" fill="white"/>
</svg>
