<svg width="30" height="15" viewBox="0 0 30 15" fill="none" xmlns="http://www.w3.org/2000/svg">
<rect opacity="0.35" x="0.548881" y="0.749321" width="26.3463" height="13.1732" rx="4.59395" stroke="#E3E3E3" stroke-width="1.09776"/>
<path opacity="0.4" d="M28.542 5.45087V9.92477C29.4254 9.54586 29.9999 8.6644 29.9999 7.68782C29.9999 6.71124 29.4254 5.82978 28.542 5.45087Z" fill="#A3A3A3"/>
<path d="M2.26367 6.7904C2.26367 5.20626 2.26367 4.41419 2.57197 3.80913C2.84315 3.2769 3.27586 2.84419 3.80809 2.573C4.41315 2.26471 5.20522 2.26471 6.78936 2.26471H20.8441C22.4289 2.26471 23.2213 2.26471 23.8266 2.57313C24.3591 2.84442 24.7919 3.27732 25.0632 3.80976C25.3717 4.41507 25.3717 5.20746 25.3717 6.79225V7.87225C25.3717 9.45704 25.3717 10.2494 25.0632 10.8547C24.7919 11.3872 24.3591 11.8201 23.8266 12.0914C23.2213 12.3998 22.4289 12.3998 20.8441 12.3998H6.78936C5.20522 12.3998 4.41315 12.3998 3.80809 12.0915C3.27586 11.8203 2.84315 11.3876 2.57197 10.8554C2.26367 10.2503 2.26367 9.45824 2.26367 7.8741V6.7904Z" fill="#DFDFDF"/>
<path d="M2.26367 6.7904C2.26367 5.20626 2.26367 4.41419 2.57197 3.80913C2.84315 3.2769 3.27586 2.84419 3.80809 2.573C4.41315 2.26471 5.20522 2.26471 6.78936 2.26471H8.39503C8.62207 2.26471 8.7356 2.26471 8.82232 2.3089C8.8986 2.34776 8.96062 2.40978 8.99949 2.48606C9.04367 2.57278 9.04367 2.68631 9.04367 2.91335V11.7511C9.04367 11.9782 9.04367 12.0917 8.99949 12.1784C8.96062 12.2547 8.8986 12.3167 8.82232 12.3556C8.7356 12.3998 8.62207 12.3998 8.39503 12.3998H6.78936C5.20522 12.3998 4.41315 12.3998 3.80809 12.0915C3.27586 11.8203 2.84315 11.3876 2.57197 10.8554C2.26367 10.2503 2.26367 9.45824 2.26367 7.8741V6.7904Z" fill="#FCCC44"/>
<g clip-path="url(#clip0_1_3296)">
<path d="M18.3124 7.04361L15.3911 6.26086L16.4865 2.17267C16.5673 1.87115 16.2062 1.65266 15.9746 1.85921L15.71 2.0947L10.0636 7.11234C9.80893 7.34211 9.90609 7.76266 10.2389 7.85185L13.1954 8.64404L12.1011 12.7283C12.0203 13.0298 12.3814 13.2483 12.617 13.0428L12.8245 12.8634L18.4906 7.78808C18.7413 7.55727 18.6413 7.13175 18.3124 7.04361Z" fill="black"/>
</g>
<defs>
<clipPath id="clip0_1_3296">
<rect width="12.1621" height="12.1621" fill="white" transform="translate(9.97559) rotate(15)"/>
</clipPath>
</defs>
</svg>
