<svg xmlns="http://www.w3.org/2000/svg" viewBox="0 0 24 24" width="24" height="24">
  <title>battery.100percent.bolt</title>
  <path transform="matrix(0.5765765765765766, 0, 0, 0.5765765765765766, 0.277027027027027, 16.875)" d="M13.57-7.57C13.57-7.28 13.82-7.07 14.12-7.07L18.08-7.07L15.97-1.37C15.69-0.62 16.50-0.21 16.98-0.81L23.40-8.88C23.52-9.04 23.60-9.19 23.60-9.34C23.60-9.63 23.36-9.84 23.06-9.84L19.09-9.84L21.20-15.54C21.48-16.29 20.68-16.70 20.20-16.10L13.77-8.04C13.65-7.88 13.57-7.72 13.57-7.57ZM9.23-0.53L14.51-0.53C14.29-1.13 14.36-1.61 14.65-2.41L8.92-2.41C7.71-2.41 6.45-2.58 5.73-3.28C5.03-4.00 4.88-5.25 4.88-6.46L4.88-10.43C4.88-11.66 5.03-12.91 5.73-13.63C6.45-14.34 7.72-14.50 8.95-14.50L16.88-14.50L18.39-16.38L9.21-16.38C7.24-16.38 5.55-16.20 4.36-15C3.16-13.80 2.99-12.13 2.99-10.17L2.99-6.77C2.99-4.77 3.16-3.11 4.36-1.91C5.55-0.71 7.24-0.53 9.23-0.53ZM18.81-0.53L27.66-0.53C29.66-0.53 31.35-0.71 32.54-1.91C33.74-3.11 33.91-4.77 33.91-6.77L33.91-10.14C33.91-12.14 33.74-13.80 32.54-15C31.35-16.20 29.66-16.38 27.66-16.38L22.69-16.38C22.89-15.82 22.83-15.34 22.55-14.50L27.98-14.50C29.19-14.50 30.46-14.33 31.16-13.63C31.88-12.91 32.03-11.67 32.03-10.46L32.03-6.46C32.03-5.25 31.88-4.00 31.16-3.28C30.46-2.58 29.19-2.41 27.98-2.41L20.32-2.41ZM8.30-3.77L15.16-3.77L15.79-5.46L14.13-5.46C12.95-5.46 11.99-6.39 11.99-7.57C11.99-8.10 12.19-8.60 12.52-9.01L15.80-13.14L8.33-13.14C7.50-13.14 7.02-13.02 6.70-12.69C6.38-12.36 6.25-11.88 6.25-11.06L6.25-5.82C6.25-5.02 6.38-4.55 6.70-4.22C7.03-3.89 7.50-3.77 8.30-3.77ZM21.40-3.77L28.62-3.77C29.41-3.77 29.88-3.89 30.21-4.22C30.54-4.55 30.67-5.02 30.67-5.82L30.67-11.09C30.67-11.89 30.54-12.36 30.21-12.69C29.88-13.02 29.41-13.14 28.62-13.14L22.03-13.14L21.41-11.45L23.07-11.45C24.25-11.45 25.21-10.54 25.21-9.34C25.21-8.81 25.01-8.31 24.68-7.90ZM35.51-5.43C36.43-5.48 37.68-6.67 37.68-8.46C37.68-10.24 36.43-11.43 35.51-11.48Z" fill="currentColor"/>
</svg>