<svg xmlns="http://www.w3.org/2000/svg" viewBox="0 0 24 24" width="24" height="24">
  <title>battery.25percent</title>
  <path transform="matrix(0.5765765765765766, 0, 0, 0.5765765765765766, 0.277027027027027, 16.875)" d="M9.23-0.53L27.66-0.53C29.66-0.53 31.35-0.71 32.54-1.91C33.74-3.11 33.91-4.77 33.91-6.77L33.91-10.14C33.91-12.14 33.74-13.80 32.54-15C31.35-16.20 29.66-16.38 27.66-16.38L9.21-16.38C7.24-16.38 5.55-16.20 4.36-15C3.16-13.80 2.99-12.13 2.99-10.17L2.99-6.77C2.99-4.77 3.16-3.11 4.36-1.91C5.55-0.71 7.24-0.53 9.23-0.53ZM8.92-2.41C7.71-2.41 6.45-2.58 5.73-3.28C5.03-4.00 4.88-5.25 4.88-6.46L4.88-10.43C4.88-11.66 5.03-12.91 5.73-13.63C6.45-14.34 7.72-14.50 8.95-14.50L27.98-14.50C29.19-14.50 30.46-14.33 31.16-13.63C31.88-12.91 32.03-11.67 32.03-10.46L32.03-6.46C32.03-5.25 31.88-4.00 31.16-3.28C30.46-2.58 29.19-2.41 27.98-2.41ZM8.30-3.77L10.57-3.77C11.38-3.77 11.85-3.89 12.16-4.22C12.49-4.55 12.62-5.02 12.62-5.82L12.62-11.09C12.62-11.89 12.49-12.36 12.18-12.69C11.85-13.02 11.37-13.14 10.57-13.14L8.33-13.14C7.49-13.14 7.01-13.02 6.69-12.69C6.36-12.36 6.25-11.88 6.25-11.06L6.25-5.82C6.25-5.02 6.36-4.55 6.69-4.22C7.02-3.89 7.50-3.77 8.30-3.77ZM35.51-5.43C36.43-5.48 37.68-6.67 37.68-8.46C37.68-10.24 36.43-11.43 35.51-11.48Z" fill="currentColor"/>
</svg>