<svg width="30" height="15" viewBox="0 0 30 15" fill="none" xmlns="http://www.w3.org/2000/svg">
<rect opacity="0.35" x="0.548881" y="0.548881" width="26.3463" height="13.1732" rx="4.59395" stroke="#E3E3E3" stroke-width="1.09776"/>
<path opacity="0.4" d="M28.542 5.25043V9.72433C29.4254 9.34542 29.9999 8.46396 29.9999 7.48738C29.9999 6.5108 29.4254 5.62934 28.542 5.25043Z" fill="#A3A3A3"/>
<rect x="2.11322" y="2.33228" width="23.0528" height="9.87978" rx="2.74438" fill="#34CB58"/>
<g clip-path="url(#clip0_1_3271)">
<path d="M17.2361 6.68771L14.7781 6.02909L15.6998 2.58919C15.7678 2.33548 15.4639 2.15164 15.269 2.32543L15.0464 2.52359L10.2954 6.74554C10.0811 6.93887 10.1629 7.29274 10.4429 7.36778L12.9306 8.03435L12.0098 11.471C11.9418 11.7247 12.2457 11.9085 12.4439 11.7356L12.6185 11.5846L17.3861 7.31413C17.597 7.11992 17.5129 6.76187 17.2361 6.68771Z" fill="white"/>
</g>
<defs>
<clipPath id="clip0_1_3271">
<rect width="10.2335" height="10.2335" fill="white" transform="translate(10.2216 0.761047) rotate(15)"/>
</clipPath>
</defs>
</svg>
