<svg xmlns="http://www.w3.org/2000/svg" viewBox="0 0 24 24" width="24" height="24">
  <title>cellularbars</title>
  <path transform="matrix(0.6708595387840671, 0, 0, 0.6708595387840671, -0.004716981132075748, 17.67610062893082)" d="M28.75 1.71L31.58 1.71C32.32 1.71 32.80 1.20 32.80 0.43L32.80-17.36C32.80-18.12 32.32-18.63 31.58-18.63L28.75-18.63C28.01-18.63 27.52-18.12 27.52-17.36L27.52 0.43C27.52 1.20 28.01 1.71 28.75 1.71ZM20.57 1.71L23.39 1.71C24.13 1.71 24.62 1.20 24.62 0.43L24.62-12.73C24.62-13.49 24.13-14.00 23.39-14.00L20.57-14.00C19.84-14.00 19.34-13.49 19.34-12.73L19.34 0.43C19.34 1.20 19.84 1.71 20.57 1.71ZM12.40 1.71L15.22 1.71C15.96 1.71 16.45 1.20 16.45 0.43L16.45-8.48C16.45-9.25 15.96-9.76 15.22-9.76L12.40-9.76C11.66-9.76 11.17-9.25 11.17-8.48L11.17 0.43C11.17 1.20 11.66 1.71 12.40 1.71ZM4.22 1.71L7.04 1.71C7.78 1.71 8.27 1.20 8.27 0.43L8.27-4.83C8.27-5.59 7.78-6.09 7.04-6.09L4.22-6.09C3.48-6.09 2.99-5.59 2.99-4.83L2.99 0.43C2.99 1.20 3.48 1.71 4.22 1.71Z" fill="currentColor"/>
</svg>