<svg width="20" height="12" viewBox="0 0 20 12" fill="none" xmlns="http://www.w3.org/2000/svg">
<path d="M6.18443 10.7624H7.8148V8.93399H9.09533V7.52805H7.8148V1.23762H5.40556C4.11183 3.20462 2.75869 5.39604 1.52437 7.54125V8.93399H6.18443V10.7624ZM3.10853 7.56766V7.46865C4.03262 5.85149 5.13493 4.08911 6.11183 2.59736H6.21084V7.56766H3.10853Z" fill="black"/>
<path d="M14.3106 11C16.8519 11 18.4757 9.42244 18.4757 6.9604V5.77228H14.5219V7.07261H16.8057L16.7991 7.27063C16.7793 8.62376 15.7892 9.52805 14.337 9.52805C12.6407 9.52805 11.5714 8.17492 11.5714 5.9901V5.9769C11.5714 3.82508 12.6209 2.47195 14.2842 2.47195C15.5054 2.47195 16.3766 3.07921 16.6869 4.12211L16.7067 4.18812H18.3965L18.3898 4.12211C18.0664 2.26073 16.4823 1 14.2842 1C11.5714 1 9.83539 2.94719 9.83539 5.9901V6.0033C9.83539 9.07921 11.5516 11 14.3106 11Z" fill="black"/>
</svg>
