<svg width="20" height="12" viewBox="0 0 20 12" fill="none" xmlns="http://www.w3.org/2000/svg">
<path d="M5.23722 11C7.29663 11 8.74217 9.64686 8.74217 7.66667V7.65347C8.74217 5.83168 7.45504 4.51155 5.67947 4.51155C4.78178 4.51155 4.0425 4.89439 3.64646 5.53465H3.53425L3.79828 2.63696H8.18772V1.23762H2.47155L2.0095 6.81518H3.46824C3.58046 6.60396 3.73887 6.41914 3.91049 6.27393C4.26032 5.9571 4.72237 5.79868 5.25702 5.79868C6.34613 5.79868 7.12501 6.57756 7.12501 7.68647V7.69967C7.12501 8.82178 6.35933 9.60726 5.24382 9.60726C4.26692 9.60726 3.54745 8.9868 3.42204 8.20792L3.41544 8.16172H1.84448L1.85108 8.24753C1.9765 9.81188 3.29003 11 5.23722 11Z" fill="black"/>
<path d="M13.9905 11C16.5317 11 18.1555 9.42244 18.1555 6.9604V5.77228H14.2017V7.07261H16.4855L16.4789 7.27063C16.4591 8.62376 15.469 9.52805 14.0169 9.52805C12.3205 9.52805 11.2512 8.17492 11.2512 5.9901V5.9769C11.2512 3.82508 12.3007 2.47195 13.9641 2.47195C15.1852 2.47195 16.0565 3.07921 16.3667 4.12211L16.3865 4.18812H18.0763L18.0697 4.12211C17.7463 2.26073 16.1621 1 13.9641 1C11.2512 1 9.51524 2.94719 9.51524 5.9901V6.0033C9.51524 9.07921 11.2314 11 13.9905 11Z" fill="black"/>
</svg>
