<svg width="20" height="12" viewBox="0 0 20 12" fill="none" xmlns="http://www.w3.org/2000/svg">
<path d="M5.29003 10.9538C7.40224 10.9538 8.84779 9.78548 8.84779 8.10891V8.09571C8.84779 6.77558 7.91709 5.94389 6.51775 5.81188V5.77888C7.65967 5.54125 8.51115 4.75578 8.51115 3.57426V3.56106C8.51115 2.06931 7.23723 1.0462 5.27683 1.0462C3.35604 1.0462 2.05571 2.12871 1.91049 3.77888L1.90389 3.85149H3.48805L3.49465 3.78548C3.58046 2.93399 4.27353 2.39934 5.27683 2.39934C6.29333 2.39934 6.88079 2.91419 6.88079 3.78548V3.79868C6.88079 4.63036 6.18112 5.22442 5.13161 5.22442H4.04251V6.49175H5.16462C6.38574 6.49175 7.12501 7.04621 7.12501 8.04951V8.06271C7.12501 8.9472 6.39234 9.56106 5.29003 9.56106C4.17452 9.56106 3.42864 8.9868 3.33623 8.18152L3.32963 8.10891H1.70587L1.71247 8.18812C1.83788 9.81848 3.20422 10.9538 5.29003 10.9538Z" fill="black"/>
<path d="M14.1291 11C16.6704 11 18.2941 9.42244 18.2941 6.9604V5.77228H14.3403V7.07261H16.6242L16.6176 7.27063C16.5978 8.62376 15.6077 9.52805 14.1555 9.52805C12.4591 9.52805 11.3898 8.17492 11.3898 5.9901V5.9769C11.3898 3.82508 12.4393 2.47195 14.1027 2.47195C15.3238 2.47195 16.1951 3.07921 16.5053 4.12211L16.5251 4.18812H18.2149L18.2083 4.12211C17.8849 2.26073 16.3007 1 14.1027 1C11.3898 1 9.65386 2.94719 9.65386 5.9901V6.0033C9.65386 9.07921 11.37 11 14.1291 11Z" fill="black"/>
</svg>
