<svg xmlns="http://www.w3.org/2000/svg" viewBox="0 0 24 24" width="24" height="24">
  <title>lock.rotation</title>
  <path transform="matrix(0.764095068739638, 0, 0, 0.764095068739638, 0.39719120346411874, 18.46496062066428)" d="M2.10-8.46C2.10-1.86 7.45 3.49 14.05 3.49C18.06 3.49 21.55 1.54 23.73-1.49C24.13-2.00 23.99-2.67 23.51-2.96C23.02-3.26 22.46-3.11 22.11-2.63C20.32-0.14 17.39 1.50 14.05 1.50C8.54 1.50 4.09-2.95 4.09-8.46C4.09-13.97 8.54-18.42 14.05-18.42C18.77-18.42 22.73-15.14 23.75-10.72L22.07-10.72C21.23-10.72 21.01-10.15 21.47-9.50L24.09-5.77C24.47-5.24 25.03-5.23 25.41-5.77L28.03-9.49C28.50-10.15 28.28-10.72 27.43-10.72L25.78-10.72C24.71-16.25 19.88-20.41 14.05-20.41C7.45-20.41 2.10-15.06 2.10-8.46ZM9.82-3.84C9.82-2.96 10.21-2.55 11.02-2.55L17.09-2.55C17.89-2.55 18.28-2.96 18.28-3.84L18.28-8.51C18.28-9.33 17.94-9.73 17.25-9.77L17.25-11.17C17.25-13.32 15.96-14.77 14.05-14.77C12.14-14.77 10.85-13.32 10.85-11.17L10.85-9.77C10.16-9.73 9.82-9.33 9.82-8.51ZM12.07-9.79L12.07-11.30C12.07-12.67 12.87-13.58 14.05-13.58C15.23-13.58 16.03-12.67 16.03-11.30L16.03-9.79Z" fill="currentColor"/>
</svg>