<svg xmlns="http://www.w3.org/2000/svg" viewBox="0 0 24 24" width="24" height="24">
  <title>network</title>
  <path transform="matrix(0.8366013071895425, 0, 0, 0.8366013071895425, 0.2450980392156863, 19.07843137254902)" d="M14.05 3.49C20.65 3.49 26.00-1.86 26.00-8.46C26.00-15.06 20.65-20.41 14.05-20.41C7.45-20.41 2.10-15.06 2.10-8.46C2.10-1.86 7.45 3.49 14.05 3.49ZM10.78-10.72C10.73-11.18 10.54-11.59 10.22-11.88C11.25-14.50 12.89-16.86 15.04-18.77C15.20-18.76 15.36-18.74 15.53-18.71C13.99-16.13 13.07-13.22 12.84-10.21C12.14-10.32 11.45-10.50 10.78-10.72ZM5.36-14.10C7.03-16.66 9.80-18.45 13.00-18.77C11.21-16.91 9.83-14.74 8.89-12.39C8.57-12.39 8.21-12.27 7.91-12.07C7.00-12.63 6.13-13.32 5.36-14.10ZM16.24-13.95C16.25-12.88 16.38-11.82 16.63-10.80C16.42-10.59 16.27-10.32 16.18-10.03C15.89-10.01 15.60-10.00 15.29-10.00C14.94-10.00 14.59-10.01 14.25-10.03C14.45-12.90 15.33-15.64 16.79-18.07C16.41-16.75 16.23-15.36 16.24-13.95ZM17.66-13.96C17.65-15.32 17.84-16.66 18.23-17.94C20.55-16.91 22.43-15.06 23.48-12.75C22.24-11.81 20.85-11.10 19.37-10.63C19.05-11.06 18.54-11.34 17.95-11.36C17.78-12.20 17.67-13.07 17.66-13.96ZM3.69-8.46C3.69-10.01 4.03-11.47 4.63-12.79C5.40-12.06 6.25-11.41 7.15-10.86C7.13-10.77 7.13-10.66 7.13-10.56C7.13-9.94 7.43-9.39 7.91-9.05C7.66-7.83 7.54-6.56 7.54-5.29C6.19-5.94 4.90-6.77 3.71-7.77C3.70-8.00 3.69-8.23 3.69-8.46ZM24.41-8.46C24.41-7.45 24.27-6.47 24-5.55C23.31-5.18 22.59-4.86 21.87-4.59C20.74-5.61 19.80-6.83 19.10-8.18C19.42-8.45 19.63-8.82 19.71-9.25C21.23-9.71 22.69-10.43 24-11.36C24.27-10.44 24.41-9.47 24.41-8.46ZM12.79-8.71C12.79-7.18 12.96-5.68 13.30-4.22C13.10-4.07 12.94-3.87 12.82-3.64C11.51-3.84 10.21-4.18 8.95-4.66C8.92-6.06 9.02-7.43 9.29-8.75C9.71-8.84 10.08-9.06 10.35-9.38C11.13-9.11 11.95-8.91 12.79-8.78C12.79-8.75 12.79-8.73 12.79-8.71ZM15.29-8.58C15.67-8.58 16.03-8.59 16.38-8.63C16.66-8.16 17.16-7.83 17.73-7.76C18.40-6.41 19.29-5.17 20.36-4.10C18.97-3.71 17.57-3.50 16.15-3.46C15.90-4.08 15.34-4.52 14.66-4.61C14.37-5.91 14.20-7.25 14.20-8.61C14.57-8.59 14.93-8.58 15.29-8.58ZM4.07-5.70C5.18-4.90 6.35-4.24 7.58-3.70C7.63-2.44 7.83-1.18 8.16 0.06C6.19-1.31 4.72-3.33 4.07-5.70ZM23.16-3.57C23.17-3.57 23.18-3.59 23.19-3.59C23.19-3.57 23.18-3.56 23.18-3.55ZM14.05 1.90C12.60 1.90 11.23 1.59 9.97 1.07C9.47-0.29 9.15-1.70 9.04-3.13C10.23-2.72 11.45-2.41 12.70-2.24C12.93-1.52 13.58-1.01 14.37-0.97C14.77-0.04 15.25 0.88 15.80 1.75C15.22 1.85 14.65 1.90 14.05 1.90ZM15.70-1.46C15.87-1.63 16.01-1.83 16.10-2.04C17.95-2.10 19.80-2.40 21.59-2.99C21.86-2.77 22.14-2.57 22.43-2.37C21.15-0.62 19.35 0.71 17.25 1.39C16.65 0.48 16.13-0.47 15.70-1.46Z" fill="currentColor"/>
</svg>