<svg xmlns="http://www.w3.org/2000/svg" viewBox="0 0 24 24" width="24" height="24">
  <title>personalhotspot</title>
  <path transform="matrix(0.5940364311405035, 0, 0, 0.5940364311405035, 0.7539157674904282, 16.991298294465714)" d="M8.91-4.31L9.86-4.31C9.79-4.92 9.73-5.59 9.81-6.20L9.04-6.20C6.15-6.20 4.10-8.23 4.10-11.13C4.10-14.02 6.16-16.05 9.04-16.05L19.43-16.05C22.30-16.05 24.36-14.02 24.36-11.13C24.36-8.23 22.30-6.20 19.43-6.20L15.32-6.20C15.15-5.74 15.21-4.85 15.57-4.31L19.56-4.31C23.53-4.31 26.37-7.10 26.37-11.13C26.37-15.15 23.53-17.94 19.56-17.94L8.91-17.94C4.93-17.94 2.10-15.15 2.10-11.13C2.10-7.10 4.93-4.31 8.91-4.31ZM18.30 1.14L28.96 1.14C32.93 1.14 35.77-1.65 35.77-5.68C35.77-9.70 32.93-12.49 28.96-12.49L28.00-12.49C28.07-11.89 28.13-11.21 28.05-10.61L28.82-10.61C31.70-10.61 33.76-8.58 33.76-5.68C33.76-2.79 31.70-0.75 28.82-0.75L18.43-0.75C15.56-0.75 13.50-2.79 13.50-5.68C13.50-8.58 15.55-10.61 18.43-10.61L22.55-10.61C22.71-11.06 22.65-11.95 22.28-12.49L18.30-12.49C14.32-12.49 11.50-9.70 11.50-5.68C11.50-1.65 14.32 1.14 18.30 1.14Z" fill="currentColor"/>
</svg>