<svg xmlns="http://www.w3.org/2000/svg" viewBox="0 0 24 24" width="24" height="24">
  <title>wifi</title>
  <path transform="matrix(0.7411705160194184, 0, 0, 0.7411705160194184, 0.30763203449783694, 18.262311820898447)" d="M4.05-9.98C4.29-9.76 4.62-9.76 4.84-10.00C7.72-13.05 11.52-14.67 15.77-14.67C20.05-14.67 23.87-13.04 26.73-9.98C26.94-9.77 27.26-9.79 27.49-10.01L29.11-11.63C29.32-11.84 29.31-12.09 29.14-12.29C26.39-15.69 21.21-18.19 15.77-18.19C10.35-18.19 5.14-15.69 2.40-12.29C2.24-12.09 2.24-11.84 2.44-11.63ZM8.92-5.09C9.18-4.84 9.49-4.88 9.73-5.13C11.13-6.69 13.43-7.83 15.77-7.82C18.14-7.83 20.44-6.66 21.87-5.10C22.08-4.85 22.37-4.86 22.63-5.10L24.45-6.90C24.63-7.09 24.66-7.35 24.48-7.56C22.71-9.73 19.43-11.36 15.77-11.36C12.12-11.36 8.84-9.73 7.07-7.56C6.89-7.35 6.90-7.11 7.10-6.90ZM15.77 1.29C16.03 1.29 16.25 1.17 16.71 0.73L19.57-2.02C19.75-2.19 19.79-2.45 19.63-2.66C18.87-3.64 17.43-4.50 15.77-4.50C14.07-4.50 12.63-3.61 11.87-2.59C11.75-2.40 11.80-2.19 11.99-2.02L14.84 0.73C15.29 1.16 15.52 1.29 15.77 1.29Z" fill="currentColor"/>
</svg>