<svg xmlns="http://www.w3.org/2000/svg"
 width="24" height="24" viewBox="0 0 24 24">
<path fill="currentColor" fill-rule="nonzero" d="M 9.2122 8.9043 L 13.9922 13.287299999999998 L 13.9922 11.034300000000002 L 7.619199999999999 5.0563 L 7.619199999999999 16.1873 C 7.619199999999999 17.5233 7.965199999999999 18.5023 8.6482 19.5683 L 10.5972 19.5683 C 9.5292 18.1613 9.2122 17.3693 9.2122 16.1873 L 9.2122 8.9043 Z M 14.7882 15.0957 L 10.008199999999999 10.7117 L 10.008199999999999 12.965699999999998 L 16.3812 18.9437 L 16.3812 7.8126999999999995 C 16.3812 6.476699999999999 16.0352 5.4977 15.353200000000001 4.431699999999999 L 13.403199999999998 4.431699999999999 C 14.4712 5.838699999999999 14.7882 6.630699999999999 14.7882 7.8126999999999995 L 14.7882 15.0957 Z " stroke-width="1.0" stroke="none" />
<path fill="none" fill-rule="evenodd" d="M 17.5 20.0 L 6.5 20.0 C 5.119 20.0 4.0 18.881 4.0 17.5 L 4.0 6.5 C 4.0 5.119 5.119 4.0 6.5 4.0 L 17.5 4.0 C 18.881 4.0 20.0 5.119 20.0 6.5 L 20.0 17.5 C 20.0 18.881 18.881 20.0 17.5 20.0 Z " stroke-width="1.5" stroke="currentColor" stroke-linecap="round" stroke-linejoin="round" />
</svg>
