<svg xmlns="http://www.w3.org/2000/svg" width="24" height="24" viewBox="0 0 24 24"><path fill="#00000000" fill-rule="evenodd" stroke="currentColor" stroke-linecap="round" stroke-linejoin="round" stroke-width="1.5" d="m10.66 17.01-.27-3.44-5.95 2.54a.38.38 0 0 1-.53-.35v-1.24q.01-.39.32-.61l5.92-4.22-.22-2.56-.02-.29v-.52c0-1.15 1.05-2.57 2.09-2.57s2.1 1.42 2.1 2.57v.52l-.01.05-.01.2-.23 2.6 5.92 4.22c.2.14.31.37.31.6v1.26c0 .27-.27.45-.52.34l-5.95-2.53-.27 3.44q-.02.28.15.5l1.6 2.11c.24.32-.1.74-.45.57l-2.32-1.1a.7.7 0 0 0-.64 0l-2.32 1.1c-.35.17-.7-.25-.46-.57l1.61-2.1a1 1 0 0 0 .15-.52"/></svg>