<svg xmlns="http://www.w3.org/2000/svg" width="24" height="24" viewBox="0 0 24 24"><path fill="currentColor" fill-rule="evenodd" stroke="#00000000" d="M12 4.54a7.68 7.68 0 0 1 5.05 13.44l1.16 1.4a.75.75 0 0 1-1.15.96l-1.23-1.48a7.6 7.6 0 0 1-7.66 0l-1.23 1.48a.75.75 0 0 1-1.05.1.75.75 0 0 1-.1-1.06l1.16-1.4A7.66 7.66 0 0 1 12 4.54Zm-.28 2.76a.75.75 0 0 0-.75.75v3.44c0 .66.54 1.2 1.21 1.2h2.57a.75.75 0 1 0 0-1.5h-2.28V8.05a.75.75 0 0 0-.75-.75ZM5.6 3.6a.75.75 0 1 1 1.06 1.07L3.88 7.44a.75.75 0 0 1-1.06 0 .75.75 0 0 1 0-1.06Zm11.76 0a.77.77 0 0 1 1.06 0l2.77 2.78a.75.75 0 1 1-1.06 1.06l-2.77-2.77a.75.75 0 0 1 0-1.06Z"/></svg>