<svg xmlns="http://www.w3.org/2000/svg" width="24" height="24" viewBox="0 0 24 24"><path fill="currentColor" fill-rule="evenodd" stroke="#00000000" d="M12.61 19.22c-.01.01-.06.05-.13.01-.07-.03-.07-.1-.07-.11v-5.68l3.93 2.97.04.03h.02zm-.2-14.34q-.02-.05.07-.11l.06-.02q.06 0 .07.03l3.75 2.74.03.03-3.98 3.01zm5.57 11.46c-.03-.3-.18-.76-.75-1.14L13 12l4.35-3.29.05-.04a1.53 1.53 0 0 0-.17-2.37L13.5 3.57a1.62 1.62 0 0 0-2.6 1.31v5.54L6.33 6.96a.75.75 0 0 0-.9 1.2L10.5 12l-5.1 3.84a.75.75 0 1 0 .91 1.2l4.59-3.46v5.54a1.62 1.62 0 0 0 2.6 1.31l3.87-2.84.06-.05c.49-.44.56-.9.54-1.2Z"/></svg>