<svg xmlns="http://www.w3.org/2000/svg" width="24" height="24" viewBox="0 0 24 24"><path fill="currentColor" fill-rule="evenodd" stroke="#00000000" d="M18.39 3.62a1 1 0 0 1 1 1.02v14.72a1 1 0 0 1-1 1.01 1 1 0 0 1-1-1.01V4.64a1 1 0 0 1 1-1.02ZM14.13 7.7a1 1 0 0 1 1 1.02v10.65a1 1 0 0 1-1 1.02 1 1 0 0 1-1-1.02V8.7a1 1 0 0 1 1-1.02Zm-4.26 4.58a1 1 0 0 1 1 1.02v6.07a1 1 0 0 1-1 1.01 1 1 0 0 1-1-1.01V13.3a1 1 0 0 1 1-1.02ZM5.61 16.1a1 1 0 0 1 1 1.01v2.25a1 1 0 0 1-1 1.01 1 1 0 0 1-1-1.01V17.1a1 1 0 0 1 1-1.01Z"/></svg>