<svg xmlns="http://www.w3.org/2000/svg" width="24" height="24" viewBox="0 0 24 24"><path fill="currentColor" stroke="#00000000" d="M9.21 8.9 14 13.3v-2.26L7.62 5.06v11.13c0 1.33.35 2.31 1.03 3.38h1.95c-1.07-1.4-1.39-2.2-1.39-3.38zm5.58 6.2L10 10.7v2.26l6.37 5.97V7.81a6 6 0 0 0-1.03-3.38H13.4c1.07 1.4 1.39 2.2 1.39 3.38z"/><path fill="#00000000" fill-rule="evenodd" stroke="currentColor" stroke-linecap="round" stroke-linejoin="round" stroke-width="1.5" d="M17.5 20h-11A2.5 2.5 0 0 1 4 17.5v-11A2.5 2.5 0 0 1 6.5 4h11A2.5 2.5 0 0 1 20 6.5v11a2.5 2.5 0 0 1-2.5 2.5"/></svg>