<svg xmlns="http://www.w3.org/2000/svg" width="24" height="24" viewBox="0 0 24 24"><path fill="currentColor" fill-rule="evenodd" d="M12 17.16a1.17 1.17 0 1 1 0 2.33 1.17 1.17 0 0 1 0-2.33m-3.88-2.6a5.5 5.5 0 0 1 7.76 0 .75.75 0 1 1-1.06 1.07 4 4 0 0 0-5.63 0 .75.75 0 1 1-1.07-1.06M12 8.62c2.63 0 5.1 1.02 6.96 2.88a.75.75 0 1 1-1.06 1.06 8.35 8.35 0 0 0-11.8 0 .75.75 0 0 1-1.06-1.06A9.8 9.8 0 0 1 12 8.6m-9.86-.03a13.97 13.97 0 0 1 19.72 0 .75.75 0 1 1-1.06 1.06 12.46 12.46 0 0 0-17.6 0 .75.75 0 1 1-1.06-1.06"/></svg>